<svg width="14px" height="14px" viewBox="1 1 14 14" version="1.1" xmlns="http://www.w3.org/2000/svg" xmlns:xlink="http://www.w3.org/1999/xlink">
    <!-- Generator: Sketch 42 (36781) - http://www.bohemiancoding.com/sketch -->
    <desc>Created with Sketch.</desc>
    <defs></defs>
    <g id="neodev-symbol-copy-2" stroke="none" stroke-width="1" fill="none" fill-rule="evenodd" transform="translate(1.000000, 1.000000)">
        <path d="M3.28528773,6.24204203 C4.36940009,4.90227533 6.03921262,3.64120514 8,2.67548202 C7.66076003,2.62016603 7.29026605,2.59105236 6.88936638,2.59105236 C5.15378648,2.59105236 3.09146821,3.12110047 1.08237106,4.0835539 C0.91712664,4.1627431 0.755230861,4.24453014 0.595031728,4.32734736 C0.214045329,5.15027908 0,6.0667329 0,7.03375493 C0,8.97966843 0.862298174,10.7223237 2.22305318,11.9021443 C2.76486379,11.7289403 3.31256802,11.5210686 3.85915603,11.2809928 C3.09445967,11.0213435 2.54666615,10.5875497 2.26569258,9.99721389 C1.78335389,8.98401308 2.14549859,7.65033786 3.28528773,6.24204203 Z" id="Fill-1" fill="#0067A5"></path>
        <path d="M7.47555362,1.89394372 C8.08977163,1.89394372 8.64531967,1.95386911 9.13497904,2.06988039 C9.753412,1.78473662 10.3755754,1.5358494 10.9924581,1.32744707 C9.85442514,0.514055857 8.46325379,0.0339723025 6.95949033,0.0339723025 C4.34211153,0.0339723025 2.06328419,1.48423483 0.874962724,3.62667695 C0.931743251,3.59882841 0.987845512,3.57020225 1.04506207,3.54283972 C3.26478339,2.47949207 5.54855238,1.89394372 7.47555362,1.89394372" id="Fill-2" fill="#0067A5"></path>
        <path d="M10.5874859,7.55546728 C9.5325479,8.85897511 7.90787214,10.0860444 6,11.0256195 C6.33006996,11.0794402 6.69063599,11.1077233 7.08065548,11.1077669 C8.7690602,11.1078541 10.7758056,10.5920465 12.7307686,9.65556566 C12.9875089,9.53258418 13.2379069,9.40463463 13.4819188,9.2725886 C13.7628997,8.56010658 13.9190291,7.7842599 13.9190291,6.97150134 C13.9190291,4.98501484 12.995676,3.21590312 11.5573216,2.06906376 C11.0507915,2.23344581 10.539396,2.42846428 10.0289561,2.65272463 C10.7731122,2.90522453 11.3060115,3.32737961 11.5794769,3.90175804 C12.0488209,4.88765813 11.6964219,6.18515199 10.5874859,7.55546728 Z" id="Fill-3" fill="#0067A5"></path>
        <path d="M4.6154303,11.7414549 C3.96373819,12.0419989 3.30839309,12.301402 2.65908759,12.5169767 C3.84474836,13.4437722 5.33453213,13.9971719 6.95411854,13.9971719 C9.73978574,13.9971719 12.1447634,12.3638463 13.2704179,10 C13.0984355,10.0887804 12.9249918,10.1762905 12.7486258,10.2607223 C10.5169943,11.3297033 8.22116777,11.918576 6.2840641,11.918576 C5.66617425,11.9184783 5.10770625,11.8581838 4.6154303,11.7414549 Z" id="Fill-5" fill="#0067A5"></path>
        <path d="M4.92801993,10.7923909 C4.97440267,10.7706686 5.02082696,10.7499052 5.0672097,10.7277243 C8.88397668,8.8993401 11.29804,5.95994975 10.4485627,4.17534372 C10.185935,3.62365559 9.63021501,3.23507235 8.84025389,3.03098277 C8.79387115,3.05262169 8.7474053,3.07342673 8.70110569,3.09564936 C4.88438027,4.92407524 2.47040004,7.86354898 3.31975268,9.64815501 C3.58238036,10.1998014 4.13810037,10.5883013 4.92801993,10.7923909 Z" id="Fill-7" fill="#0067A5"></path>
    </g>
</svg>
