<svg id="Layer_1" data-name="Layer 1" xmlns="http://www.w3.org/2000/svg" viewBox="0 0 497.65 88.95"><defs><style>.cls-1{fill:#0069b4;}</style></defs><title>neodev</title><path class="cls-1" d="M103.69,20.23h13c0,2.54,0,5-.11,7.73,2.54-4.55,7.73-9.64,18.11-9.54,19,.11,22.56,14.62,22.56,24.9V78.39H143.41V46.82c0-8.69-2.86-15.36-12.6-15.36s-13.24,6.67-13.24,14.83v32.1H103.69Z"/><path class="cls-1" d="M179.88,53.92c.64,9.32,8.9,14.51,16.84,14.41,6.78,0,11.33-3.07,14-7.84H225A32.84,32.84,0,0,1,213.25,75.1a28.8,28.8,0,0,1-16.63,5.08A30.6,30.6,0,0,1,165.9,49.47c0-16.52,12.92-31,30.5-31a29.7,29.7,0,0,1,21.72,8.9c7.09,7.31,9.74,16.42,8.58,26.59ZM213,43.32c-.53-5.51-6.35-13.24-16.53-13.13s-15.89,7.41-16.42,13.13Z"/><path class="cls-1" d="M235.28,49.15c0-14.83,10.91-30.62,31.14-30.62s31.14,15.79,31.14,30.72-10.91,30.82-31.14,30.82S235.28,64.3,235.28,49.26Zm13.88.21c0,10.17,7.73,17.69,17.27,17.69s17.16-7.52,17.16-17.8S276,31.46,266.42,31.46,249.15,39,249.15,49.26Z"/><path class="cls-1" d="M368.85,78.39H355.61V70c-2.54,4.34-8,10.17-19.91,10.17-17.9,0-29.45-14-29.45-30.93,0-18.86,13.45-30.83,29.24-30.83,11.12,0,17.37,5.93,19.49,9.32V0h13.88ZM320.12,49.26c0,9.85,7.1,17.9,17.79,17.9a18.18,18.18,0,0,0,12.92-5.3,17.08,17.08,0,0,0,5-12.92,17.15,17.15,0,0,0-5.19-12.5A17.68,17.68,0,0,0,338,31.36c-11.33,0-17.9,8.68-17.9,17.8Z"/><path class="cls-1" d="M391.83,53.92c.64,9.32,8.9,14.51,16.85,14.41,6.78,0,11.33-3.07,14-7.84H437A32.84,32.84,0,0,1,425.2,75.1a28.8,28.8,0,0,1-16.63,5.08,30.6,30.6,0,0,1-30.72-30.72c0-16.52,12.92-31,30.51-31a29.69,29.69,0,0,1,21.72,8.9c7.1,7.31,9.75,16.42,8.58,26.59ZM425,43.32c-.53-5.51-6.35-13.24-16.52-13.13S392.57,37.6,392,43.32Z"/><path class="cls-1" d="M476,78.39H462.49L440.88,20.23h14.41l14,40.68,14-40.68h14.41Z"/><path class="cls-1" d="M15,66.1c-3.19-6.67-.79-15.45,6.73-24.73,7.16-8.82,18.19-17.12,31.14-23.48a45.85,45.85,0,0,0-7.34-.56c-11.46,0-25.09,3.49-38.36,9.83-1.09.52-2.16,1.06-3.22,1.6A42.34,42.34,0,0,0,14.68,78.64a111.13,111.13,0,0,0,10.81-4.09C20.44,72.84,16.82,70,15,66.1Z"/><path class="cls-1" d="M45.51,15.5a44.2,44.2,0,0,1,10.1,1.07,115.92,115.92,0,0,1,11.31-4.5A42.35,42.35,0,0,0,5.33,26l1-.51C19.87,19.06,33.78,15.5,45.51,15.5Z"/><path class="cls-1" d="M68.85,25.81c3.19,6.67.79,15.45-6.73,24.72C55,59.36,43.92,67.66,31,74a45.9,45.9,0,0,0,7.33.56c11.46,0,25.09-3.49,38.36-9.83q2.61-1.25,5.1-2.59A42.34,42.34,0,0,0,68.7,13.41c-3.44,1.11-6.91,2.43-10.38,3.95C63.37,19.07,67,21.93,68.85,25.81Z"/><path class="cls-1" d="M38.31,76.4h0a44.24,44.24,0,0,1-10.1-1.07A114.71,114.71,0,0,1,16.36,80,42.36,42.36,0,0,0,80.61,64.82c-1,.54-2.09,1.06-3.16,1.58C63.94,72.85,50,76.4,38.31,76.4Z"/><path class="cls-1" d="M16.61,65.31C18.48,69.21,22.42,72,28,73.4l1-.46C56.1,60,73.23,39.22,67.2,26.6c-1.86-3.9-5.81-6.65-11.41-8.1l-1,.46C27.72,31.9,10.59,52.69,16.61,65.31Z"/></svg>