<?xml version="1.0" encoding="utf-8"?>
<!-- Generator: Adobe Illustrator 21.1.0, SVG Export Plug-In . SVG Version: 6.00 Build 0)  -->
<svg version="1.1" id="Layer_1" xmlns="http://www.w3.org/2000/svg" xmlns:xlink="http://www.w3.org/1999/xlink" x="0px" y="0px"
	 viewBox="0 0 600 600" style="enable-background:new 0 0 600 600;" xml:space="preserve">
<style type="text/css">
	.st0{fill:#BBBBBB;}
</style>
<g>
	<g>
		<g>
			<path class="st0" d="M70.4,109.1c0.3-9.8,0.4-12.1,0.5-21.7l56.8-16.6c0.3,9,0.5,12,1.3,21.2l-3.4,1c-0.3-1.4-0.5-2.8-0.9-4.2
				c-0.4-1.5-1.6-5.1-4.8-7.7c-3.9-3.2-7.8-2.4-11.6-1.7v13.8l0.4,35.5l0.3,12.8l9-2.6v2.8l-35.5,10.4v-2.8l8.2-2.4l0.1-11.9
				l-0.5-50.2c-3.2,1.3-6.6,2.7-10.2,7.5c-4.2,5.6-5.2,10.7-6.3,16L70.4,109.1z"/>
			<path class="st0" d="M132.1,69.5l33.4-9.8v2.8l-7.1,2.1l-0.1,7.7l0.2,20.5l22.4-6.6l-0.3-19.7l-0.3-8.4l-7.9,2.3l0.1-2.8
				l33.7-9.9v2.8l-7.5,2.2l-0.1,8.9l0.6,44.3l0.4,8.9l8.1-2.4v2.8l-33.5,9.8v-2.8l7.1-2.1l0.2-10.5L181,89.2l-22.3,6.5l0.2,20.6
				l0.2,10.3l8-2.3v2.8l-33.6,9.8v-2.8l7.4-2.2l0.1-10.5l-0.5-41.8l-0.2-9.9l-8.2,2.4V69.5z"/>
			<path class="st0" d="M215.3,45.1l55.3-16.2l2.1,20.8l-3.2,0.9c-1.1-4.5-2.2-8.6-6.3-11.1c-6-3.6-12.5-1.8-21.4,0.7l0.2,25.9
				c4.1-1.2,7.9-2.4,11.5-6.5c3.4-4.1,3.9-7.5,4.3-11l3.1-0.9c-0.2,17.6-0.3,18.4,0.2,32.5l-3.2,0.9c-0.2-1.9-0.4-3.7-0.9-5.5
				c-2.8-9.4-10.3-7.3-14.9-6.1l0.7,32.7c10-2.8,16.9-5.1,23-10.5c7.4-6.5,9-13.8,9.6-18.7l3.5-1c-0.6,15.5-0.6,17.2-0.6,22.6
				L217,112.5v-2.8l7.3-2.1l0.1-13l-0.6-49.2l-8.2,2.4L215.3,45.1z"/>
		</g>
		<g>
			<path class="st0" d="M208.6,238.3c-0.4,22.9-0.2,27.1,0.3,45.2c-12.2,6.8-25.3,14.1-43.9,19.5c-30.6,9-47.4,2.5-57.5-4.2
				c-10.7-7.4-17.8-19-21.5-31.5c-6.5-22.3-3.4-46.2,5.8-67.6c15.5-37.2,45.9-47.8,58.7-51.5c24.5-7.2,43.1-4.7,53.8-3.3
				c-0.1,12.7,0.1,18.8,2.2,45.1l-7.3,1.3c-0.9-4.5-1.7-9.4-3.2-14.7c-2.1-7.1-4.9-13.8-10.9-18.9c-9.6-7.9-20.2-6.1-25.6-4.5
				c-15.6,4.6-23.9,16.5-28.5,31.7c-5.5,18.6-8.3,62.7-0.4,88.8c1.5,5.1,3.5,9.7,6.3,13.4c7.4,9.2,19,11.4,31.1,7.9
				c29.3-8.6,31.5-37.6,32.7-54.8L208.6,238.3z"/>
			<path class="st0" d="M228.3,129.1l65.2-19.1c31.2-8.7,36.9-10.4,45.6-9.3c10.8,1.6,16.5,9.3,18.9,17.6c2.4,8.1,2,18.5-3.4,28
				c-9.1,16.6-29.5,24.7-42.5,30c18.8-3.3,46.4-8,53,14.7c1,3.6,1.3,6.7,2.7,17.4c0.4,3.7,1.1,8.9,2,11.9
				c3.5,11.9,13.5,8.7,21.5,6.1l-0.1,6.3c-11,3.6-15.2,5.1-23.7,7.6c-14.4,4.2-32.8,9.6-37.9-7.8c-1.2-4-2-10.6-3.5-24.3
				c-0.5-5.4-1.1-11.7-2.4-16.3c-4-13.6-15.6-10.9-25.8-8.1l-10.3,3l1.3,69.6l19.4-5.7l0.1,6.2L232,279.5l0.1-6.3l16.2-4.7l0.1-26.7
				l-1.1-82.8l-1-29.1l-17.8,5.2L228.3,129.1z M287.7,180.4c7.4-1.9,16.2-4.1,22.3-11c9-10.4,9.6-30.9,6.3-42.2
				c-4.6-15.8-16-12.7-29.1-9.1L287.7,180.4z"/>
			<path class="st0" d="M392.5,81l123.4-36.1l4.8,46.5l-7.1,2.1c-2.5-10-5-19.2-14.1-24.8c-13.3-8.1-27.8-4.1-47.8,1.6l0.4,57.8
				c9.1-2.7,17.7-5.4,25.6-14.6c7.6-9.1,8.6-16.7,9.6-24.5l6.9-2c-0.5,39.2-0.6,41.2,0.4,72.4l-7.1,2.1c-0.4-4.2-0.9-8.3-2.1-12.3
				c-6.1-21-23-16.2-33.2-13.7l1.6,72.9c22.4-6.3,37.6-11.5,51.3-23.4c16.6-14.5,20.2-30.8,21.5-41.7l7.7-2.3
				c-1.3,34.5-1.4,38.4-1.3,50.4l-136.8,40l-0.1-6.2l16.2-4.7l0.3-29.1l-1.4-109.7l-18.4,5.4L392.5,81z"/>
		</g>
		<g>
			<path class="st0" d="M162.6,318.3l6.7-2l-0.1,25.5l0.7,60.9l0.5,16L183,415l0.1,4.3l-52.5,15.4l0.1-4.3l11.8-3.5l-0.3-29.9
				l-22.9,6.7l-19.7,35.7l11.5-3.4l0.1,4.3l-28.6,8.4l0.1-4.3l9.6-2.8L152.1,337L162.6,318.3z M142.1,364.4L122.5,398l19.6-5.8
				V364.4z"/>
			<path class="st0" d="M185.1,346.9c0.5-15.2,0.6-18.8,0.7-33.6l88-25.8c0.5,14,0.8,18.6,2,32.8l-5.2,1.5c-0.5-2.2-0.8-4.4-1.4-6.4
				c-0.7-2.3-2.5-7.9-7.4-12c-6.1-4.9-12.1-3.8-17.9-2.7V322l0.6,55l0.4,19.9l14-4.1l0.1,4.3l-55.1,16.1l0.1-4.3l12.6-3.7l0.1-18.5
				l-0.7-77.8c-4.9,2-10.3,4.2-15.8,11.6c-6.6,8.6-8.1,16.5-9.8,24.8L185.1,346.9z"/>
			<path class="st0" d="M280.6,285.5l52.1-15.2l0.1,4.3l-11.3,3.3l-0.1,16l0.7,62.6l0.3,17.8l12.5-3.7l-0.1,4.3l-52.1,15.2l0.1-4.3
				l11.5-3.4l0.1-17.5l-0.8-64.3l-0.5-14.5l-12.5,3.7L280.6,285.5z"/>
			<path class="st0" d="M343.7,267.1l51.1-15l0.1,4.3l-11.8,3.5l6.6,63.7l6.5-13.1l22.4-46.2l7.7-17l-11.9,3.5l0.1-4.3l27.2-8
				l0.1,4.3l-8.7,2.5l-8.9,18.9l-42.3,86.7l-6.5,13.5l-7,2.1c-7.9-64.2-8.8-71.3-12.6-98.5l-11.9,3.5L343.7,267.1z"/>
			<path class="st0" d="M444.3,237.6l85.7-25.1l3.3,32.3l-4.9,1.4c-1.7-7-3.5-13.3-9.8-17.3c-9.3-5.6-19.3-2.8-33.2,1.1l0.3,40.2
				c6.3-1.8,12.3-3.8,17.8-10.1c5.3-6.3,6-11.6,6.7-17l4.8-1.4c-0.4,27.2-0.4,28.6,0.3,50.3l-4.9,1.4c-0.3-2.9-0.6-5.8-1.4-8.5
				c-4.3-14.6-16-11.3-23.1-9.5l1.1,50.7c15.6-4.4,26.2-8,35.7-16.3c11.5-10.1,14-21.4,14.9-29l5.4-1.6c-0.9,24-1,26.7-0.9,35
				L447,342l-0.1-4.3l11.3-3.3l0.2-20.2l-1-76.2l-12.8,3.7L444.3,237.6z"/>
		</g>
		<g>
			<path class="st0" d="M82.1,468.7l53-15.5c17.8-5,26-6.9,34.3-5.8c12.4,1.6,17.7,10.8,19.7,17.6c2.3,7.9,2.4,20.9-3.5,32.4
				c-8.6,16.7-24.2,21.5-35.8,25.1L131,528l0.7,45.1l16.6-4.9l-0.1,5.1L85,591.8l-0.1-5.1l13.4-3.9l0.3-22.2l-1.1-91.3l-15.3,4.5
				L82.1,468.7z M131,522.3c1.7-0.3,3.3-0.8,5.1-1.3c7.1-2.1,14.1-5.7,17.6-15.3c4.1-11,3.1-28.3,1-35.6
				c-4.8-16.3-17.3-12.5-24.1-10.5L131,522.3z"/>
			<path class="st0" d="M199.9,434.2l62.9-18.4l-0.1,5.1l-14.7,4.3l-0.1,20.2l1,70.4l0.8,22.6c15.8-4.8,34.8-10.5,45.8-26.2
				c6.5-9.4,7.8-18.4,8.7-25.9l5.5-1.6c0,26.3,0,29.3,0.6,41.1l-108,31.6l-0.1-5.1l13.9-4.1l-1.2-95.3l-0.7-17.9l-14.4,4.2
				L199.9,434.2z"/>
			<path class="st0" d="M430.3,408.8c9.5,32.5-3.8,86.6-53.6,101.1c-28.5,8.3-53.3-1.8-61.3-28.9c-5-17-3.2-39.6,7-60
				c10.7-21.4,26.8-33.3,47.1-39.4C403.2,371.6,423.6,386,430.3,408.8z M350.6,417.9c-3.3,19.9-3.9,55.7,1.2,73
				c0.7,2.4,2.8,9.5,9.5,12.8c4.3,2.2,9.4,2,14,0.6c11.8-3.5,16.6-12.9,19.7-30.5c4.3-23,3.6-57.2-1-72.9
				c-1.9-6.6-4.8-10.4-8.8-12.7c-5.1-2.9-11.1-2.7-16.5-0.8C359,390.8,353.8,399.2,350.6,417.9z"/>
			<path class="st0" d="M437.5,404c0.5-17.9,0.7-22.1,0.9-39.6L542,334.1c0.6,16.5,1,21.8,2.4,38.6l-6.1,1.8c-0.6-2.6-1-5.2-1.7-7.6
				c-0.8-2.7-2.9-9.3-8.7-14.1c-7.1-5.8-14.3-4.4-21.1-3.1v25.1l0.7,64.7l0.5,23.4l16.5-4.8l0.1,5.1l-64.8,19l0.1-5.1l14.9-4.3
				l0.1-21.8l-0.8-91.5c-5.8,2.4-12.1,4.9-18.6,13.7c-7.7,10.2-9.6,19.5-11.5,29.2L437.5,404z"/>
		</g>
	</g>
	<polygon class="st0" points="467.8,562.8 562.9,562.8 597,562.8 597,528.7 597,433.6 562.9,433.6 562.9,528.7 467.8,528.7 	"/>
	<polygon class="st0" points="132.2,3 37.1,3 3,3 3,37.1 3,132.2 37.1,132.2 37.1,37.1 132.2,37.1 	"/>
</g>
</svg>
