<svg id="091c5dd3-ee8c-4e7b-8dbc-540b511405f0" data-name="Lager 1" xmlns="http://www.w3.org/2000/svg" viewBox="0 0 271.6 271.6"><defs><style>.aa5a44a2-1182-43cb-8ceb-6ed0b050a714{fill:#009466;}</style></defs><title>hemmlis_logo</title><path class="aa5a44a2-1182-43cb-8ceb-6ed0b050a714" d="M142.38,229.52H91.45v-146a30.31,30.31,0,0,1,30.28-30.28h16.74a3.91,3.91,0,0,1,3.91,3.91v92.33l57.72-24,13.51-6.31v40.54c0,8.73-6.38,17.22-19.46,17.22l-25.2,0a3.77,3.77,0,0,1-2.85-1.09,3.87,3.87,0,0,1-1.19-2.81V143.29l-22.53,9.35Zm-48-2.89h35V57.19a1,1,0,0,0-1-1h-6.63A27.42,27.42,0,0,0,94.34,83.56Zm73.45-84.54v31a1,1,0,0,0,.31.73,1.12,1.12,0,0,0,.74.28l25.19,0c6,0,9-2.13,9-3.67,0-5.91.08-43.1.08-43.1l-1.85.86Z" transform="translate(-5.69 -6.5)"/><path class="aa5a44a2-1182-43cb-8ceb-6ed0b050a714" d="M141.49,278.09c-74.88,0-135.8-60.92-135.8-135.8S66.61,6.5,141.49,6.5s135.8,60.92,135.8,135.8S216.37,278.09,141.49,278.09Zm0-267.6c-72.67,0-131.8,59.12-131.8,131.8s59.12,131.8,131.8,131.8,131.8-59.12,131.8-131.8S214.16,10.5,141.49,10.5Z" transform="translate(-5.69 -6.5)"/></svg>