<svg id="763a4dfa-a2fc-442d-954e-a0aa48672e48" data-name="Lager 1" xmlns="http://www.w3.org/2000/svg" viewBox="0 0 388.82 99.78"><defs><style>.\39 aee471b-f207-4a10-b7be-9bbb7bc8a52b{fill:#1d1d1b;}</style></defs><title>Rityta 1</title><path class="9aee471b-f207-4a10-b7be-9bbb7bc8a52b" d="M128.2,20.29h.68a1.24,1.24,0,0,1,1.35,1.35V47.78h20.72V21.64a1.24,1.24,0,0,1,1.35-1.35H153a1.24,1.24,0,0,1,1.35,1.35V78.13A1.25,1.25,0,0,1,153,79.49h-.68a1.25,1.25,0,0,1-1.35-1.35V51H130.23V78.13a1.25,1.25,0,0,1-1.35,1.35h-.68a1.25,1.25,0,0,1-1.35-1.35V21.64A1.24,1.24,0,0,1,128.2,20.29Z"/><path class="9aee471b-f207-4a10-b7be-9bbb7bc8a52b" d="M191,79.49H170.9a1.25,1.25,0,0,1-1.35-1.35V21.64a1.24,1.24,0,0,1,1.35-1.35h19.87a1.24,1.24,0,0,1,1.35,1.35v.51a1.24,1.24,0,0,1-1.35,1.35H172.93V47.86h15.22a1.25,1.25,0,0,1,1.35,1.35v.51a1.25,1.25,0,0,1-1.35,1.35H172.93v25.2H191a1.25,1.25,0,0,1,1.35,1.35v.51A1.25,1.25,0,0,1,191,79.49Z"/><path class="9aee471b-f207-4a10-b7be-9bbb7bc8a52b" d="M225.11,68.07a1.51,1.51,0,0,1-1.35,1.1,1.52,1.52,0,0,1-1.44-1.1L207.77,29.26V78.13a1.24,1.24,0,0,1-1.35,1.35h-.51a1.24,1.24,0,0,1-1.35-1.35V21.64a1.24,1.24,0,0,1,1.35-1.35h.85a1.65,1.65,0,0,1,1.61,1.1l15.22,41.44,15.48-41.44a1.65,1.65,0,0,1,1.61-1.1h1A1.25,1.25,0,0,1,243,21.64V78.13a1.25,1.25,0,0,1-1.35,1.35H241a1.25,1.25,0,0,1-1.35-1.35V29.26Z"/><path class="9aee471b-f207-4a10-b7be-9bbb7bc8a52b" d="M278.8,68.07a1.51,1.51,0,0,1-1.35,1.1,1.52,1.52,0,0,1-1.44-1.1L261.47,29.26V78.13a1.24,1.24,0,0,1-1.35,1.35h-.51a1.24,1.24,0,0,1-1.35-1.35V21.64a1.24,1.24,0,0,1,1.35-1.35h.85a1.65,1.65,0,0,1,1.61,1.1l15.22,41.44,15.48-41.44a1.65,1.65,0,0,1,1.61-1.1h1a1.25,1.25,0,0,1,1.35,1.35V78.13a1.25,1.25,0,0,1-1.35,1.35h-.68a1.25,1.25,0,0,1-1.35-1.35V29.26Z"/><path class="9aee471b-f207-4a10-b7be-9bbb7bc8a52b" d="M333.52,77.63v.51a1.25,1.25,0,0,1-1.35,1.35H313.3A1.24,1.24,0,0,1,312,78.13V21.64a1.24,1.24,0,0,1,1.35-1.35H314a1.24,1.24,0,0,1,1.35,1.35V76.27h16.83A1.25,1.25,0,0,1,333.52,77.63Z"/><path class="9aee471b-f207-4a10-b7be-9bbb7bc8a52b" d="M347,79.49h-.68A1.24,1.24,0,0,1,345,78.13V21.64a1.24,1.24,0,0,1,1.35-1.35H347a1.25,1.25,0,0,1,1.35,1.35V78.13A1.25,1.25,0,0,1,347,79.49Z"/><path class="9aee471b-f207-4a10-b7be-9bbb7bc8a52b" d="M387.3,40.59h-.68a1.25,1.25,0,0,1-1.35-1.35V33.15c0-7.1-2.45-10.32-9.56-10.32s-9.56,3.21-9.56,10.32v4.14c0,4.74,1.69,5.83,6.51,8.46l9.56,5.16c3.72,2,6.6,5.5,6.6,9.47v7.44c0,8.29-4,12.35-12.94,12.35h-.17c-9,0-12.94-4-12.94-12.35V59.7a1.24,1.24,0,0,1,1.35-1.35h.68a1.24,1.24,0,0,1,1.35,1.35v6.77c0,7,2.45,10.49,9.64,10.49s9.64-3.47,9.64-10.49V61.73c0-4.74-1.94-6.26-6.85-9l-9.3-5.07c-4.74-2.62-6.51-4.82-6.51-9.22V31.79c0-7.95,4.74-12.18,12.85-12.18h.17c8.12,0,12.85,4.23,12.85,12.18v7.44A1.25,1.25,0,0,1,387.3,40.59Z"/><path class="9aee471b-f207-4a10-b7be-9bbb7bc8a52b" d="M50.1,78.77H33.35v-48a10,10,0,0,1,10-10h5.51a1.29,1.29,0,0,1,1.28,1.28V52.45l19-7.89,4.44-2.08V55.83c0,2.87-2.1,5.67-6.4,5.67H58.84a1.24,1.24,0,0,1-.94-.36,1.27,1.27,0,0,1-.39-.92V50.4L50.1,53.48Zm-15.8-1H45.82V22.07a.33.33,0,0,0-.33-.33H43.31a9,9,0,0,0-9,9ZM58.46,50V60.22a.33.33,0,0,0,.1.24.37.37,0,0,0,.24.09H67.1c2,0,3-.7,3-1.21,0-1.94,0-14.18,0-14.18l-.61.28Z"/><path id="aa156621-22c7-4a01-9db0-eaeedf2c8888" data-name="Cirkel" class="9aee471b-f207-4a10-b7be-9bbb7bc8a52b" d="M49.89,91.88a42,42,0,1,1,42-42A42,42,0,0,1,49.89,91.88Zm0-83A41.06,41.06,0,1,0,91,49.89,41.11,41.11,0,0,0,49.89,8.83Z"/><path class="9aee471b-f207-4a10-b7be-9bbb7bc8a52b" d="M49.89,99.78A49.89,49.89,0,1,1,99.78,49.89,49.95,49.95,0,0,1,49.89,99.78Zm0-97.48A47.59,47.59,0,1,0,97.48,49.89,47.64,47.64,0,0,0,49.89,2.3Z"/></svg>