<?xml version="1.0" encoding="utf-8"?>
<!-- Generator: Adobe Illustrator 22.1.0, SVG Export Plug-In . SVG Version: 6.00 Build 0)  -->
<svg version="1.1" id="Lager_1" xmlns="http://www.w3.org/2000/svg" xmlns:xlink="http://www.w3.org/1999/xlink" x="0px" y="0px"
	 viewBox="0 0 602.5 129.2" style="enable-background:new 0 0 602.5 129.2;" xml:space="preserve">
<style type="text/css">
	.st0{fill:#BBBBBB;}
</style>
<g>
	<g>
		<g>
			<rect x="120.2" y="1.3" class="st0" width="15.2" height="64.6"/>
			<polygon class="st0" points="471,66 501.3,1.3 485.7,1.3 463.6,48.5 441.6,1.3 426,1.3 456.3,66 			"/>
			<polygon class="st0" points="73.7,66 106,1.3 89.6,1.3 65.5,48.5 20.9,1.3 0,1.3 59.5,66 			"/>
			<polygon class="st0" points="528.8,1.3 496.5,65.9 513,65.9 537,18.8 581.7,65.9 602.5,65.9 543,1.3 			"/>
			<polygon class="st0" points="175.5,23.8 175.5,65.9 160.4,65.9 160.4,1.3 175.5,1.3 213.8,43.3 213.8,1.3 228.9,1.3 228.9,65.9 
				213.8,65.9 			"/>
			<polygon class="st0" points="267.5,23.8 267.5,65.9 252.3,65.9 252.3,1.3 267.5,1.3 305.7,43.3 305.7,1.3 320.9,1.3 320.9,65.9 
				305.7,65.9 			"/>
			<path class="st0" d="M379.4,54.5c13.4,0,22.1-7.3,22.1-20.5c0-12.7-8.3-19.8-22.1-19.8s-22.1,7.1-22.1,19.8
				C357.3,47.2,365.9,54.5,379.4,54.5 M341.8,33.7c0-21.6,14.1-33.7,37.6-33.7S417,12.1,417,33.7c0,22.5-14.7,34.9-37.6,34.9
				C356.5,68.6,341.8,56.2,341.8,33.7"/>
		</g>
		<g>
			<path class="st0" d="M38.5,98.9c-0.4-1.2-1.1-2.1-2-2.9c-0.9-0.7-2-1.1-3.4-1.1c-1.3,0-2.3,0.3-3.1,0.8c-0.8,0.5-1.2,1.4-1.2,2.6
				c0,0.9,0.4,1.6,1.2,2.2c0.8,0.6,1.7,1.1,2.9,1.6c1.2,0.5,2.4,1,3.8,1.5c1.3,0.5,2.6,1.1,3.8,1.9c1.2,0.7,2.1,1.7,2.9,2.8
				s1.2,2.5,1.2,4.1c0,3.1-0.9,5.5-2.8,7s-4.5,2.3-7.9,2.3c-1.2,0-2.4-0.2-3.6-0.5s-2.3-0.8-3.3-1.4c-1-0.6-1.9-1.4-2.7-2.3
				c-0.8-0.9-1.4-1.9-1.8-3l4.8-2.1c0.7,1.4,1.5,2.6,2.5,3.5s2.3,1.3,4.1,1.3c0.7,0,1.4-0.1,2-0.2c0.6-0.1,1.2-0.4,1.6-0.7
				c0.5-0.3,0.8-0.7,1.1-1.3c0.3-0.5,0.4-1.1,0.4-1.9c0-1-0.4-1.8-1.2-2.5c-0.8-0.7-1.7-1.3-2.9-1.8c-1.2-0.5-2.4-1.1-3.8-1.6
				c-1.3-0.5-2.6-1.1-3.8-1.8s-2.1-1.6-2.9-2.6s-1.2-2.3-1.2-3.9c0-1.3,0.3-2.6,0.8-3.6c0.5-1.1,1.2-2,2.1-2.7s1.9-1.3,3.1-1.6
				c1.2-0.4,2.4-0.6,3.7-0.6c2.4,0,4.6,0.6,6.5,1.8s3.3,2.9,4.2,5.1L38.5,98.9z"/>
			<path class="st0" d="M46.1,99.3h5.2l3.6,14.8H55l3.7-14.8h5.2l-6.3,21.9h-5.5L46.1,99.3z"/>
			<path class="st0" d="M70.6,111.1c0.1,2.3,0.5,3.9,1.4,4.9s1.9,1.5,3.2,1.5c1.2,0,2.2-0.2,2.9-0.7s1.4-1.1,2-1.9l3.8,2.4
				c-1,1.6-2.3,2.7-3.8,3.4s-3.3,1.1-5.4,1.1c-1.4,0-2.7-0.3-3.9-0.8c-1.1-0.5-2.1-1.3-2.9-2.3c-0.8-1-1.4-2.2-1.9-3.6
				c-0.4-1.4-0.7-3-0.7-4.7s0.2-3.3,0.7-4.7c0.4-1.4,1.1-2.6,1.9-3.6c0.8-1,1.8-1.7,3-2.3c1.2-0.5,2.5-0.8,4-0.8
				c1.4,0,2.7,0.3,3.8,0.8s2,1.3,2.8,2.2s1.3,2,1.7,3.2s0.6,2.5,0.6,3.8v2.1L70.6,111.1L70.6,111.1z M79,107.6
				c-0.1-1.5-0.5-2.7-1.2-3.5s-1.7-1.3-3-1.3s-2.3,0.4-3,1.3c-0.7,0.8-1.1,2-1.2,3.5H79z"/>
			<path class="st0" d="M87.8,121.2V99.3h4.8v3.7h0.1c0.6-1.3,1.4-2.3,2.4-3c0.9-0.7,2.2-1.1,3.8-1.1v5.5c-0.1,0-0.3,0-0.4,0
				c-0.1,0-0.3,0-0.5,0c-0.6,0-1.3,0.2-1.9,0.5c-0.6,0.3-1.1,0.7-1.6,1.1c-0.4,0.4-0.8,0.8-1.1,1.2S93,107.8,93,108v13.3h-5.2V121.2
				z"/>
			<path class="st0" d="M102.7,95.3v-4.9h5.2v4.9H102.7z M107.9,121.2h-5.2V99.3h5.2V121.2z"/>
			<path class="st0" d="M131.7,102.4c-0.6,0-1.2,0-1.9,0.1c-0.6,0-1.1,0.2-1.5,0.4c0.3,0.5,0.6,1,0.8,1.7c0.2,0.6,0.3,1.4,0.3,2.2
				c0,1-0.2,2-0.5,2.8c-0.4,0.9-0.9,1.6-1.6,2.2c-0.7,0.6-1.5,1.1-2.6,1.5c-1,0.4-2.2,0.5-3.6,0.5c-1.2,0-2.1,0.1-2.9,0.2
				c-0.8,0.1-1.2,0.5-1.2,1.1s0.4,1,1.1,1.2c0.7,0.2,1.6,0.3,2.7,0.4c1.1,0.1,2.2,0.1,3.5,0.2c1.2,0.1,2.4,0.3,3.5,0.7
				s2,0.9,2.7,1.7s1.1,1.9,1.1,3.3c0,0.8-0.2,1.6-0.6,2.3c-0.4,0.8-1,1.5-1.9,2.1c-0.8,0.6-1.9,1.1-3.2,1.5s-2.8,0.6-4.5,0.6
				c-2.9,0-5.3-0.4-7.1-1.3c-1.8-0.9-2.7-2.2-2.7-3.9c0-0.7,0.1-1.3,0.4-1.8c0.2-0.5,0.5-0.9,0.9-1.3c0.4-0.3,0.8-0.6,1.3-0.8
				s0.9-0.3,1.4-0.3v-0.1c-0.3-0.2-0.6-0.3-0.9-0.5c-0.4-0.2-0.7-0.4-1.1-0.6c-0.4-0.3-0.6-0.6-0.9-0.9s-0.4-0.9-0.4-1.5
				c0-0.5,0.1-1,0.4-1.5c0.3-0.4,0.6-0.8,0.9-1.2c0.4-0.4,0.7-0.6,1.1-0.9c0.4-0.2,0.7-0.4,0.9-0.5c-0.9-0.7-1.7-1.5-2.3-2.4
				s-0.9-2-0.9-3.4c0-1,0.2-1.9,0.5-2.8c0.4-0.9,0.9-1.7,1.6-2.4c0.7-0.7,1.6-1.3,2.7-1.7c1.1-0.4,2.3-0.7,3.7-0.7
				c0.9,0,1.9,0.2,2.9,0.5c1,0.4,1.8,0.8,2.5,1.4c0.5-0.7,1.2-1.2,2-1.5s1.9-0.5,3.1-0.4v3.8H131.7z M120.1,120.8
				c-0.7,0-1.3,0.1-1.8,0.3s-0.8,0.4-1.1,0.7s-0.5,0.5-0.6,0.8s-0.2,0.6-0.2,0.8c0,0.8,0.4,1.5,1.3,1.9c0.8,0.4,2.4,0.6,4.5,0.6
				c0.8,0,1.5-0.1,2.1-0.3s1-0.4,1.4-0.7s0.6-0.5,0.8-0.8s0.2-0.5,0.2-0.7c0-0.3-0.1-0.5-0.3-0.8s-0.6-0.6-1.1-0.8
				c-0.5-0.3-1.2-0.5-2-0.6C122.5,120.9,121.4,120.8,120.1,120.8z M124.7,106.4c0-1-0.4-1.9-1.1-2.6c-0.7-0.7-1.5-1.1-2.5-1.1
				c-1.1,0-2,0.4-2.7,1.1c-0.7,0.7-1.1,1.6-1.1,2.6s0.4,1.9,1.1,2.6c0.7,0.7,1.6,1.1,2.7,1.1c1,0,1.8-0.4,2.5-1.1
				C124.3,108.2,124.7,107.4,124.7,106.4z"/>
			<path class="st0" d="M137.6,111.1c0.1,2.3,0.5,3.9,1.4,4.9s1.9,1.5,3.2,1.5c1.2,0,2.2-0.2,2.9-0.7s1.4-1.1,2-1.9l3.8,2.4
				c-1,1.6-2.3,2.7-3.8,3.4s-3.3,1.1-5.4,1.1c-1.4,0-2.7-0.3-3.9-0.8c-1.1-0.5-2.1-1.3-2.9-2.3c-0.8-1-1.4-2.2-1.9-3.6
				c-0.4-1.4-0.7-3-0.7-4.7s0.2-3.3,0.7-4.7c0.4-1.4,1.1-2.6,1.9-3.6c0.8-1,1.8-1.7,3-2.3c1.2-0.5,2.5-0.8,4-0.8
				c1.4,0,2.7,0.3,3.8,0.8s2,1.3,2.8,2.2s1.3,2,1.7,3.2s0.6,2.5,0.6,3.8v2.1L137.6,111.1L137.6,111.1z M146,107.6
				c-0.1-1.5-0.5-2.7-1.2-3.5s-1.7-1.3-3-1.3s-2.3,0.4-3,1.3c-0.7,0.8-1.1,2-1.2,3.5H146z"/>
			<path class="st0" d="M165.7,105.1c-0.5-0.6-1.1-1.1-1.8-1.6s-1.4-0.7-2.3-0.7c-1,0-1.8,0.2-2.2,0.6c-0.5,0.4-0.7,0.9-0.7,1.6
				c0,0.6,0.3,1.1,0.8,1.5s1.2,0.7,2,1s1.7,0.6,2.6,0.9c1,0.3,1.8,0.8,2.6,1.3s1.5,1.2,2,2.1c0.5,0.9,0.8,1.9,0.8,3.3
				c0,1.2-0.2,2.1-0.6,2.9c-0.4,0.8-1,1.5-1.7,2s-1.6,0.9-2.5,1.2c-1,0.3-2,0.4-3.2,0.4c-1.8,0-3.3-0.4-4.7-1.1
				c-1.4-0.8-2.6-1.9-3.6-3.3l3.5-2.6c0.6,0.8,1.3,1.6,2.2,2.2c0.8,0.6,1.8,0.9,2.9,0.9c0.9,0,1.7-0.2,2.3-0.7s0.9-1.1,0.9-1.8
				c0-0.6-0.3-1.1-0.8-1.5s-1.2-0.7-2-1.1c-0.8-0.3-1.7-0.6-2.6-1c-1-0.4-1.8-0.8-2.6-1.3s-1.5-1.2-2-2s-0.8-1.9-0.8-3.1
				c0-1,0.2-1.9,0.6-2.7c0.4-0.8,0.9-1.5,1.6-2s1.4-0.9,2.3-1.2c0.9-0.3,1.8-0.4,2.7-0.4c1.5,0,2.9,0.3,4.2,0.8
				c1.4,0.5,2.5,1.4,3.5,2.5L165.7,105.1z"/>
			<path class="st0" d="M187.1,95.3v-4.9h5.2v4.9H187.1z M192.4,121.2h-5.2V99.3h5.2V121.2z"/>
			<path class="st0" d="M197.4,121.2V99.3h4.8v2.4c1-0.7,2-1.3,3.1-1.9c1.1-0.6,2.3-0.9,3.6-0.9c2.2,0,3.8,0.7,4.9,2
				s1.6,3.1,1.6,5.3v15h-5.2V107c0-1.5-0.2-2.5-0.7-3.1c-0.4-0.5-1.1-0.8-2-0.8c-1.2,0-2.1,0.3-3,0.8c-0.8,0.5-1.5,1-1.9,1.5v15.8
				L197.4,121.2L197.4,121.2z"/>
			<path class="st0" d="M220,121.2V99.3h4.8v2.4c1-0.7,2-1.3,3.1-1.9c1.1-0.6,2.3-0.9,3.6-0.9c2.2,0,3.8,0.7,4.9,2s1.6,3.1,1.6,5.3
				v15h-5.2V107c0-1.5-0.2-2.5-0.7-3.1c-0.4-0.5-1.1-0.8-2-0.8c-1.2,0-2.1,0.3-3,0.8c-0.8,0.5-1.5,1-1.9,1.5v15.8L220,121.2
				L220,121.2z"/>
			<path class="st0" d="M241.7,110.2c0-1.7,0.2-3.3,0.7-4.7c0.4-1.4,1.1-2.6,1.9-3.6s1.8-1.7,3-2.3c1.2-0.5,2.5-0.8,4-0.8
				s2.8,0.3,4,0.8c1.2,0.5,2.2,1.3,3,2.3s1.4,2.2,1.9,3.6c0.4,1.4,0.7,3,0.7,4.7s-0.2,3.3-0.7,4.7c-0.4,1.4-1.1,2.6-1.9,3.6
				s-1.8,1.7-3,2.3c-1.2,0.5-2.5,0.8-4,0.8s-2.8-0.3-4-0.8s-2.2-1.3-3-2.3s-1.4-2.2-1.9-3.6C241.9,113.6,241.7,112,241.7,110.2z
				 M255.5,110.2c0-2.5-0.4-4.3-1.1-5.4c-0.7-1.1-1.8-1.7-3.2-1.7c-1.5,0-2.5,0.6-3.2,1.7c-0.7,1.2-1.1,3-1.1,5.4
				c0,2.5,0.4,4.3,1.1,5.4c0.7,1.2,1.8,1.7,3.2,1.7c1.5,0,2.5-0.6,3.2-1.7C255.2,114.5,255.5,112.7,255.5,110.2z"/>
			<path class="st0" d="M262.2,99.3h5.2l3.6,14.8h0.1l3.7-14.8h5.2l-6.3,21.9h-5.5L262.2,99.3z"/>
			<path class="st0" d="M294.3,121.2l-0.3-1.9c-1.1,0.7-2.1,1.3-3.2,1.7c-1.1,0.4-2.3,0.6-3.6,0.6c-1,0-1.8-0.2-2.6-0.5
				c-0.7-0.3-1.4-0.8-1.9-1.3s-0.9-1.2-1.1-1.9s-0.4-1.4-0.4-2.2c0-2.5,1-4.4,3.1-5.8c2-1.4,5.2-2.3,9.5-2.8v-1.9
				c0-0.8-0.3-1.5-0.9-1.9c-0.6-0.4-1.4-0.7-2.3-0.7c-1.2,0-2.2,0.3-2.9,0.8s-1.3,1.2-1.9,1.9l-3.4-2.6c0.3-0.6,0.8-1.1,1.4-1.6
				c0.6-0.5,1.3-0.9,2-1.3c0.7-0.4,1.5-0.6,2.3-0.8s1.6-0.3,2.4-0.3c1.5,0,2.7,0.2,3.8,0.5c1.1,0.3,1.9,0.8,2.6,1.5s1.2,1.6,1.5,2.7
				c0.3,1.1,0.5,2.5,0.5,4.1v10.3c0,0.6,0,1.1,0.1,1.6c0.1,0.5,0.2,1,0.3,1.5h-5V121.2z M293.7,110.7c-0.9,0.2-1.7,0.4-2.6,0.5
				c-0.9,0.2-1.7,0.5-2.4,0.8c-0.7,0.3-1.3,0.7-1.7,1.2s-0.7,1.1-0.7,1.9c0,0.8,0.2,1.4,0.7,1.9c0.5,0.4,1.1,0.7,1.8,0.7
				c0.4,0,0.9-0.1,1.3-0.2c0.4-0.2,0.9-0.3,1.3-0.6c0.4-0.2,0.8-0.5,1.2-0.8c0.4-0.3,0.7-0.5,1-0.8v-4.6H293.7z"/>
			<path class="st0" d="M305,99.3v-7.2h5.2v7.2h4.3v4.2h-4.3v12.4c0,0.6,0.2,1,0.5,1.2s0.8,0.3,1.4,0.3c0.4,0,0.8,0,1.2-0.1
				c0.4-0.1,0.8-0.2,1.2-0.3v4.3c-0.7,0.1-1.4,0.2-2.1,0.2c-0.6,0.1-1.3,0.1-2.1,0.1c-1.9,0-3.3-0.4-4.1-1.3
				c-0.8-0.9-1.2-2.1-1.2-3.7v-13h-3v-4.2L305,99.3L305,99.3z"/>
			<path class="st0" d="M318.7,95.3v-4.9h5.2v4.9H318.7z M323.9,121.2h-5.2V99.3h5.2V121.2z"/>
			<path class="st0" d="M328.2,110.2c0-1.7,0.2-3.3,0.7-4.7c0.4-1.4,1.1-2.6,1.9-3.6s1.8-1.7,3-2.3c1.2-0.5,2.5-0.8,4-0.8
				s2.8,0.3,4,0.8s2.2,1.3,3,2.3s1.4,2.2,1.9,3.6c0.4,1.4,0.7,3,0.7,4.7s-0.2,3.3-0.7,4.7c-0.4,1.4-1.1,2.6-1.9,3.6s-1.8,1.7-3,2.3
				s-2.5,0.8-4,0.8s-2.8-0.3-4-0.8s-2.2-1.3-3-2.3s-1.4-2.2-1.9-3.6C328.4,113.6,328.2,112,328.2,110.2z M342,110.2
				c0-2.5-0.4-4.3-1.1-5.4c-0.7-1.1-1.8-1.7-3.2-1.7c-1.5,0-2.5,0.6-3.2,1.7c-0.7,1.2-1.1,3-1.1,5.4c0,2.5,0.4,4.3,1.1,5.4
				c0.7,1.2,1.8,1.7,3.2,1.7c1.5,0,2.5-0.6,3.2-1.7C341.6,114.5,342,112.7,342,110.2z"/>
			<path class="st0" d="M350.9,121.2V99.3h4.8v2.4c1-0.7,2-1.3,3.1-1.9c1.1-0.6,2.3-0.9,3.6-0.9c2.2,0,3.8,0.7,4.9,2
				c1.1,1.3,1.6,3.1,1.6,5.3v15h-5.2V107c0-1.5-0.2-2.5-0.7-3.1c-0.4-0.5-1.1-0.8-2-0.8c-1.2,0-2.1,0.3-3,0.8
				c-0.8,0.5-1.5,1-1.9,1.5v15.8L350.9,121.2L350.9,121.2z"/>
			<path class="st0" d="M384.9,105.1c-0.5-0.6-1.1-1.1-1.8-1.6c-0.7-0.5-1.4-0.7-2.3-0.7c-1,0-1.8,0.2-2.2,0.6
				c-0.5,0.4-0.7,0.9-0.7,1.6c0,0.6,0.3,1.1,0.8,1.5s1.2,0.7,2,1s1.7,0.6,2.6,0.9c1,0.3,1.8,0.8,2.6,1.3c0.8,0.5,1.5,1.2,2,2.1
				c0.5,0.9,0.8,1.9,0.8,3.3c0,1.2-0.2,2.1-0.6,2.9c-0.4,0.8-1,1.5-1.7,2s-1.6,0.9-2.5,1.2c-1,0.3-2,0.4-3.2,0.4
				c-1.8,0-3.3-0.4-4.7-1.1c-1.4-0.8-2.6-1.9-3.6-3.3l3.5-2.6c0.6,0.8,1.3,1.6,2.2,2.2c0.8,0.6,1.8,0.9,2.9,0.9
				c0.9,0,1.7-0.2,2.3-0.7c0.6-0.5,0.9-1.1,0.9-1.8c0-0.6-0.3-1.1-0.8-1.5s-1.2-0.7-2-1.1c-0.8-0.3-1.7-0.6-2.6-1
				c-1-0.4-1.8-0.8-2.6-1.3s-1.5-1.2-2-2s-0.8-1.9-0.8-3.1c0-1,0.2-1.9,0.6-2.7c0.4-0.8,0.9-1.5,1.6-2s1.4-0.9,2.3-1.2
				c0.9-0.3,1.8-0.4,2.7-0.4c1.5,0,2.9,0.3,4.2,0.8c1.3,0.5,2.5,1.4,3.5,2.5L384.9,105.1z"/>
			<path class="st0" d="M393,121.2V99.3h4.8v2.4c1-0.9,1.9-1.6,2.9-2.1s2.2-0.7,3.7-0.7c1.1,0,2.2,0.3,3.2,0.8s1.7,1.3,2.2,2.4
				c0.4-0.4,0.9-0.9,1.4-1.3c0.5-0.4,1.1-0.7,1.7-1c0.6-0.3,1.3-0.5,2-0.7s1.5-0.3,2.4-0.3c0.6,0,1.2,0.1,1.8,0.3s1.2,0.5,1.7,1
				s1,1.2,1.3,2c0.4,0.9,0.5,1.9,0.5,3.2V121h-5.2v-15.3c0-0.9-0.2-1.6-0.6-2c-0.4-0.4-1.1-0.7-2-0.8c-0.7,0-1.4,0.3-2.2,0.8
				c-0.8,0.5-1.5,1-2.1,1.6V121h-5.2v-15.3c0-0.9-0.2-1.6-0.6-2c-0.4-0.4-1.1-0.7-2-0.8c-0.7,0-1.4,0.3-2.2,0.8
				c-0.8,0.5-1.5,1-2.1,1.6V121H393V121.2z"/>
			<path class="st0" d="M425.7,124.7c0.4,0.1,0.8,0.1,1.1,0.1s0.7,0,1.1,0c0.9,0,1.6-0.1,2.2-0.4c0.6-0.3,1-0.7,1.3-1.3
				c0.3-0.5,0.5-1,0.6-1.3c0.2-0.4,0.2-0.8,0.2-1.2s-0.1-0.8-0.2-1.3c-0.2-0.4-0.3-0.9-0.4-1.3l-5.8-18.7h5.3l3.6,13.5h0.1l3.7-13.5
				h5.2l-6.9,21.9c-0.6,1.6-1.2,2.9-1.7,3.9s-1.1,1.8-1.8,2.4c-0.7,0.6-1.4,1-2.2,1.3c-0.8,0.2-1.7,0.4-2.8,0.4c-0.6,0-1.2,0-1.5,0
				c-0.4,0-0.7-0.1-1-0.1v-4.4H425.7z"/>
			<path class="st0" d="M446.7,121.2V99.3h4.8v2.4c1-0.7,2-1.3,3.1-1.9c1.1-0.6,2.3-0.9,3.6-0.9c2.2,0,3.8,0.7,4.9,2
				c1.1,1.3,1.6,3.1,1.6,5.3v15h-5.2V107c0-1.5-0.2-2.5-0.7-3.1c-0.4-0.5-1.1-0.8-2-0.8c-1.2,0-2.1,0.3-3,0.8
				c-0.8,0.5-1.5,1-1.9,1.5v15.8L446.7,121.2L446.7,121.2z"/>
			<path class="st0" d="M488.1,121.2h-4.4l-0.3-2.4c-0.9,0.9-1.9,1.6-2.8,2.1s-2,0.7-3.2,0.7c-1.5,0-2.7-0.3-3.8-0.9
				c-1.1-0.6-2-1.4-2.7-2.5s-1.3-2.3-1.6-3.8c-0.4-1.5-0.5-3-0.5-4.8c0-1.3,0.2-2.7,0.6-4c0.4-1.3,0.9-2.4,1.7-3.5
				c0.7-1,1.7-1.8,2.8-2.4c1.1-0.6,2.3-0.9,3.7-0.9c0.4,0,0.9,0.1,1.4,0.2c0.5,0.1,1,0.3,1.5,0.5s0.9,0.5,1.4,0.8
				c0.4,0.3,0.8,0.6,1,1h0.1V90.8h5.2v30.4H488.1z M482.9,104.9c-0.5-0.5-1.1-0.9-1.8-1.3c-0.7-0.4-1.4-0.6-2.3-0.6
				c-1.6,0-2.8,0.6-3.6,1.8s-1.3,3-1.3,5.3s0.4,4.1,1.3,5.3s2,1.8,3.6,1.8c0.6,0,1-0.1,1.4-0.2s0.7-0.3,1-0.5s0.6-0.4,0.8-0.6
				c0.2-0.2,0.5-0.4,0.8-0.7L482.9,104.9L482.9,104.9z"/>
			<path class="st0" d="M494,95.3v-4.9h5.2v4.9H494z M499.3,121.2h-5.2V99.3h5.2V121.2z"/>
			<path class="st0" d="M523,102.4c-0.6,0-1.2,0-1.9,0.1c-0.6,0-1.1,0.2-1.5,0.4c0.3,0.5,0.6,1,0.8,1.7c0.2,0.6,0.3,1.4,0.3,2.2
				c0,1-0.2,2-0.5,2.8c-0.4,0.9-0.9,1.6-1.6,2.2c-0.7,0.6-1.5,1.1-2.6,1.5c-1,0.4-2.2,0.5-3.6,0.5c-1.2,0-2.1,0.1-2.9,0.2
				c-0.8,0.1-1.2,0.5-1.2,1.1s0.4,1,1.1,1.2c0.7,0.2,1.6,0.3,2.7,0.4c1.1,0.1,2.2,0.1,3.5,0.2s2.4,0.3,3.5,0.7s2,0.9,2.7,1.7
				s1.1,1.9,1.1,3.3c0,0.8-0.2,1.6-0.6,2.3c-0.4,0.8-1,1.5-1.9,2.1c-0.8,0.6-1.9,1.1-3.2,1.5s-2.8,0.6-4.5,0.6
				c-2.9,0-5.3-0.4-7.1-1.3s-2.7-2.2-2.7-3.9c0-0.7,0.1-1.3,0.4-1.8s0.5-0.9,0.9-1.3c0.4-0.3,0.8-0.6,1.3-0.8s0.9-0.3,1.4-0.3v-0.1
				c-0.3-0.2-0.6-0.3-0.9-0.5s-0.7-0.4-1.1-0.6c-0.4-0.3-0.6-0.6-0.9-0.9c-0.2-0.4-0.4-0.9-0.4-1.5c0-0.5,0.1-1,0.4-1.5
				c0.3-0.4,0.6-0.8,0.9-1.2c0.4-0.4,0.7-0.6,1.1-0.9s0.7-0.4,0.9-0.5c-0.9-0.7-1.7-1.5-2.3-2.4s-0.9-2-0.9-3.4c0-1,0.2-1.9,0.5-2.8
				c0.4-0.9,0.9-1.7,1.6-2.4c0.7-0.7,1.6-1.3,2.7-1.7c1.1-0.4,2.3-0.7,3.7-0.7c0.9,0,1.9,0.2,2.9,0.5c1,0.4,1.8,0.8,2.5,1.4
				c0.5-0.7,1.2-1.2,2-1.5s1.9-0.5,3.1-0.4v3.8H523z M511.5,120.8c-0.7,0-1.3,0.1-1.8,0.3s-0.8,0.4-1.1,0.7s-0.5,0.5-0.6,0.8
				s-0.2,0.6-0.2,0.8c0,0.8,0.4,1.5,1.3,1.9c0.8,0.4,2.4,0.6,4.5,0.6c0.8,0,1.5-0.1,2.1-0.3s1-0.4,1.4-0.7s0.6-0.5,0.8-0.8
				s0.2-0.5,0.2-0.7c0-0.3-0.1-0.5-0.3-0.8s-0.6-0.6-1.1-0.8c-0.5-0.3-1.2-0.5-2-0.6C513.8,120.9,512.8,120.8,511.5,120.8z
				 M516,106.4c0-1-0.4-1.9-1.1-2.6c-0.7-0.7-1.5-1.1-2.5-1.1c-1.1,0-2,0.4-2.7,1.1c-0.7,0.7-1.1,1.6-1.1,2.6s0.3,1.9,1.1,2.6
				c0.7,0.7,1.6,1.1,2.7,1.1c1,0,1.8-0.4,2.5-1.1C515.7,108.2,516,107.4,516,106.4z"/>
			<path class="st0" d="M526.2,121.2V90.8h5.2v10.9c0.8-0.7,1.7-1.3,2.8-1.9c1.1-0.6,2.2-0.9,3.5-0.9c2.2,0,3.8,0.7,4.9,2
				c1.1,1.3,1.6,3.1,1.6,5.3v15H539V107c0-1.5-0.2-2.5-0.7-3.1c-0.4-0.5-1.1-0.8-2-0.8c-1.2,0-2.1,0.3-3,0.8c-0.8,0.5-1.5,1-1.9,1.5
				v15.8L526.2,121.2L526.2,121.2z"/>
			<path class="st0" d="M553.2,111.1c0.1,2.3,0.5,3.9,1.4,4.9s1.9,1.5,3.2,1.5c1.2,0,2.2-0.2,2.9-0.7s1.4-1.1,2-1.9l3.8,2.4
				c-1,1.6-2.3,2.7-3.8,3.4s-3.3,1.1-5.4,1.1c-1.4,0-2.7-0.3-3.8-0.8s-2.1-1.3-2.9-2.3c-0.8-1-1.4-2.2-1.9-3.6
				c-0.4-1.4-0.7-3-0.7-4.7s0.2-3.3,0.7-4.7c0.4-1.4,1.1-2.6,1.9-3.6c0.8-1,1.8-1.7,3-2.3c1.2-0.5,2.5-0.8,4-0.8
				c1.4,0,2.7,0.3,3.8,0.8s2,1.3,2.8,2.2s1.3,2,1.7,3.2s0.6,2.5,0.6,3.8v2.1L553.2,111.1L553.2,111.1z M561.6,107.6
				c-0.1-1.5-0.5-2.7-1.2-3.5s-1.7-1.3-3-1.3s-2.3,0.4-3,1.3c-0.7,0.8-1.1,2-1.2,3.5H561.6z"/>
			<path class="st0" d="M570.7,99.3v-7.2h5.2v7.2h4.3v4.2h-4.3v12.4c0,0.6,0.2,1,0.5,1.2s0.8,0.3,1.4,0.3c0.4,0,0.8,0,1.2-0.1
				s0.8-0.2,1.2-0.3v4.3c-0.7,0.1-1.4,0.2-2.1,0.2c-0.6,0.1-1.3,0.1-2.1,0.1c-1.9,0-3.3-0.4-4.1-1.3s-1.2-2.1-1.2-3.7v-13h-3v-4.2
				L570.7,99.3L570.7,99.3z"/>
		</g>
	</g>
</g>
</svg>
